<?xml version="1.0" encoding="utf-8"?>
<!-- Generator: Adobe Illustrator 16.0.0, SVG Export Plug-In . SVG Version: 6.00 Build 0)  -->
<!DOCTYPE svg PUBLIC "-//W3C//DTD SVG 1.1//EN" "http://www.w3.org/Graphics/SVG/1.1/DTD/svg11.dtd">
<svg version="1.1"
	 id="svg2536" inkscape:output_extension="org.inkscape.output.svg.inkscape" xmlns:dc="http://purl.org/dc/elements/1.1/" xmlns:cc="http://creativecommons.org/ns#" xmlns:inkscape="http://www.inkscape.org/namespaces/inkscape" xmlns:sodipodi="http://sodipodi.sourceforge.net/DTD/sodipodi-0.dtd" xmlns:svg="http://www.w3.org/2000/svg" xmlns:rdf="http://www.w3.org/1999/02/22-rdf-syntax-ns#" sodipodi:docname="Fulda.svg" inkscape:version="0.46" sodipodi:version="0.32"
	 xmlns="http://www.w3.org/2000/svg" xmlns:xlink="http://www.w3.org/1999/xlink" x="0px" y="0px" width="1710.246px"
	 height="706.858px" viewBox="48.843 35.701 1710.246 706.858" enable-background="new 48.843 35.701 1710.246 706.858"
	 xml:space="preserve">
<defs>
	
	
		<inkscape:perspective  id="perspective2543" sodipodi:type="inkscape:persp3d" inkscape:vp_x="0 : 526.18109 : 1" inkscape:vp_z="744.09448 : 526.18109 : 1" inkscape:vp_y="0 : 1000 : 0" inkscape:persp3d-origin="372.04724 : 350.78739 : 1">
		</inkscape:perspective>
</defs>
<sodipodi:namedview  id="base" showgrid="false" pagecolor="#ffffff" bordercolor="#666666" borderopacity="1.0" objecttolerance="10.0" inkscape:cy="496.5" gridtolerance="10.0" inkscape:cx="1504" guidetolerance="10.0" inkscape:zoom="0.18816489" inkscape:window-x="66" inkscape:pageopacity="0.0" inkscape:pageshadow="2" inkscape:window-width="640" inkscape:window-height="667" inkscape:window-y="87" inkscape:current-layer="svg2536">
	</sodipodi:namedview>
<path id="path2549" fill="#005696" d="M271.854,724.164c20.137-5.143,33.87-19.055,39.646-40.165
	c1.982-7.247,2.168-10.786,2.557-48.813c0.284-27.777,0.073-41.899-0.652-43.794c-1.057-2.744-1.199-2.788-8.332-2.5l-7.258,0.294
	l-0.566,42.5c-0.482,36.215-0.822,43.39-2.302,48.5c-3.573,12.354-9.727,19.955-20.428,25.244
	c-7.286,3.603-8.018,3.754-17.652,3.723c-13.504-0.048-19.707-2.445-28.141-10.877c-6.387-6.39-9.53-12.674-11.479-22.94
	c-0.513-2.706-0.933-22.77-0.933-44.584c0-29.517-0.308-39.971-1.2-40.863c-1.744-1.743-13.254-1.563-14.743,0.232
	c-0.894,1.074-1.091,12.371-0.794,45.25c0.428,47.515,0.596,49.103,6.432,60.763c7.435,14.855,21.022,25.394,36.807,28.538
	C249.751,726.052,265.534,725.777,271.854,724.164z M548.516,721.907c16.015-7.883,24.146-23.365,21.646-41.223
	c-1.104-7.889-3.706-13.52-8.558-18.515c-5.535-5.7-11.018-8.761-27.043-15.104c-11.486-4.548-15.549-6.666-18.848-9.841
	c-9.384-9.022-7.532-22.856,4.017-29.997c4.009-2.479,6.198-3.09,12.16-3.391c8.431-0.426,14.591,1.236,24.234,6.54
	c8.631,4.746,9.339,4.282,8.979-5.878c-0.285-8.053-0.354-8.249-3.473-10.066c-5.118-2.982-13.778-5.695-21.712-6.801
	c-18.811-2.615-35.571,5.154-43.636,20.229c-2.971,5.552-3.43,7.417-3.772,15.319c-0.478,11.028,1.749,17.963,7.786,24.246
	c5.292,5.507,10.496,8.444,27.045,15.269c20.442,8.427,25.527,13.43,25.403,24.985c-0.146,13.567-11.258,22.932-25.826,21.763
	c-7.296-0.586-13.845-3.348-24.077-10.148c-3.833-2.548-7.433-4.479-8-4.292c-0.565,0.188-1.162,4.073-1.321,8.635
	c-0.352,9.911-0.071,10.337,10.1,15.435c10.715,5.369,16.541,6.655,28.383,6.273C541.017,725.057,542.926,724.659,548.516,721.907z
	 M1046.388,721.892c7.688-3.672,15.922-11.785,19.232-18.953c1.854-4.021,2.193-6.522,2.193-16.253
	c0-10.517-0.228-11.928-2.649-16.5c-5.501-10.377-12.535-15.297-33.566-23.476c-15.688-6.101-21.522-10.597-23.396-18.024
	c-2.216-8.791,2.254-17.798,11.043-22.25c9.769-4.947,22.863-3.229,36.568,4.805c6.741,3.951,7.64,3.117,7.291-6.787l-0.291-8.268
	l-6.384-3.142c-11.722-5.77-27.69-7.425-39.144-4.058c-11.04,3.246-21.563,13.087-25.397,23.757
	c-2.485,6.915-1.876,21.657,1.138,27.442c4.854,9.316,11.438,13.902,32.317,22.513c20.402,8.411,25.384,13.314,25.367,24.987
	c-0.021,13.5-11.197,22.932-25.79,21.761c-7.296-0.586-13.845-3.348-24.077-10.148c-3.833-2.548-7.434-4.479-8-4.292
	c-0.567,0.188-1.163,4.073-1.323,8.635c-0.35,9.911-0.07,10.339,10.102,15.435c10.663,5.344,16.558,6.657,28.19,6.281
	C1038.585,725.071,1040.622,724.646,1046.388,721.892z M359.044,723.291c0.424-0.424,0.995-24.115,1.271-52.646l0.5-51.877
	l45.5,52.407c42.03,48.414,45.782,52.457,49.229,53.044c5.378,0.916,9.454-0.224,10.156-2.841
	c1.046-3.897,0.688-127.369-0.377-130.171c-0.959-2.523-1.231-2.6-8.25-2.315l-7.258,0.294l-0.261,52.33
	c-0.165,33.256-0.61,52.211-1.229,52c-0.533-0.182-21.064-23.505-45.625-51.83c-24.563-28.323-45.271-51.858-46.021-52.3
	c-0.751-0.438-3.953-0.665-7.113-0.5l-5.75,0.3l-0.259,67.178c-0.24,63.345-0.155,67.204,1.5,67.685
	C347.571,724.776,358.127,724.206,359.044,723.291z M678.38,723.65c1.579-0.847,1.937-2.126,1.937-6.967
	c0-4.839-0.355-6.118-1.937-6.965c-1.206-0.646-12.882-1.035-31.019-1.035h-29.085l0.27-22.25l0.271-22.25l29-0.5l29-0.5v-7v-7
	l-29-0.5l-29-0.5v-22v-22l29.708-0.265l29.706-0.265l0.683-3.639c0.376-1.999,0.282-5.255-0.207-7.232l-0.89-3.602h-37.5h-37.5
	l-0.259,67.178c-0.24,63.359-0.155,67.199,1.5,67.634C607.859,724.987,676.477,724.669,678.38,723.65z M723.749,723.71l2.565-0.975
	V692.71v-30.024l10.25,0.008c12.635,0.007,16.747,1.095,21.971,5.811c3.769,3.403,15.107,19.904,30.827,44.854
	c5.217,8.28,6.943,10.276,9.305,10.75c5.085,1.018,12.205,0.624,14.125-0.779c1.796-1.313,1.778-1.492-0.51-5.25
	c-7.144-11.73-36.995-56.174-38.822-57.796c-2.745-2.438-2.698-3.022,0.354-4.412c4.29-1.954,11.563-9.382,14.342-14.645
	c2.414-4.571,2.66-6.06,2.66-16.038c0-9.995-0.243-11.457-2.663-16c-3.345-6.275-8.881-11.641-15.337-14.857
	c-9.212-4.592-13.394-5.143-39-5.143h-24l-0.261,66.5c-0.24,61.63-0.137,66.592,1.439,67.75
	C713.022,724.925,720.151,725.078,723.749,723.71z M726.762,646.408c-0.27-0.702-0.368-10.489-0.219-21.75l0.271-20.475l13,0.036
	c15.839,0.043,22.956,1.92,28.566,7.532c6.626,6.626,7.418,18.229,1.784,26.139c-2.62,3.682-9.881,7.327-17.326,8.703
	C744.393,648.158,727.386,648.035,726.762,646.408z M908.749,723.71c2.363-0.896,2.564-1.451,2.564-7.024
	c0-5.571-0.201-6.125-2.564-7.022c-1.448-0.551-14.951-0.978-31.02-0.978h-28.453l0.27-22.25l0.271-22.25l29-0.5l29-0.5v-7v-7
	l-29-0.5l-29-0.5v-22v-22l29.5-0.5l29.5-0.5v-7v-7l-36.885-0.263c-26.391-0.188-37.271,0.063-38.25,0.873
	c-1.131,0.938-1.365,12.519-1.365,67.044v65.91l2.25,0.904C837.65,724.895,905.499,724.946,908.749,723.71z M1144.044,723.29
	c0.424-0.424,0.895-27.5,1.043-60.169l0.273-59.399l23.727-0.269l23.729-0.27l0.293-6.092c0.207-4.306-0.117-6.433-1.111-7.258
	c-1.043-0.866-15.6-1.101-56.293-0.909l-54.889,0.259l-0.891,3.602c-0.489,1.979-0.583,5.231-0.208,7.229l0.683,3.635l23.707,0.269
	l23.709,0.268l0.259,59.68c0.239,55.745,0.373,59.712,2,60.186C1132.573,724.777,1143.129,724.204,1144.044,723.29z
	 M1193.232,723.421c1.806-0.923,4.85-6.555,12.017-22.235l9.599-21l29.112-0.265l29.113-0.266l9.87,21.618
	c7.618,16.685,10.397,21.821,12.187,22.516c3.503,1.354,11.562,1.073,13.688-0.481c1.786-1.307,0.331-4.761-28.451-67.495
	c-16.687-36.363-30.913-66.598-31.619-67.184s-3.229-0.926-5.606-0.755l-4.321,0.312l-30.251,65.945
	c-16.64,36.271-30.251,66.725-30.251,67.677s0.786,1.938,1.75,2.188C1183.647,724.933,1190.894,724.615,1193.232,723.421z
	 M1222.583,663.436c3.439-8.898,21.283-46.576,21.789-46.012c1.071,1.197,20.941,45.053,20.941,46.219
	c0,0.691-7.271,1.043-21.606,1.043C1226.831,664.686,1222.206,664.412,1222.583,663.436z M1388.422,723.627
	c30.818-3.163,51.224-19.585,59.005-47.486c2.827-10.139,3.063-27.491,0.518-37.928c-4.518-18.495-16.419-33.563-32.629-41.303
	c-14.618-6.979-19.971-7.725-55.5-7.725h-31l-0.258,67.176c-0.24,63.359-0.156,67.201,1.5,67.634
	C1333.646,724.932,1378.464,724.648,1388.422,723.627z M1344.556,656.436l0.261-52.25l17.962-0.272
	c21.265-0.324,30.379,1.052,41.292,6.233c36.896,17.521,37.756,73.653,1.405,91.959c-11.197,5.641-16.8,6.551-40.42,6.565
	l-20.759,0.015L1344.556,656.436z M1516.622,723.436c1.548-1.146,1.711-6.194,1.941-60.25l0.25-59l23.5-0.5l23.5-0.5v-7v-7h-56h-56
	v7v7l23.75,0.27l23.75,0.269l0.015,57.731c0.008,31.753,0.278,58.721,0.603,59.929c0.325,1.208,1.33,2.396,2.236,2.634
	C1507.724,724.961,1515.021,724.621,1516.622,723.436z M499.459,461.641c34.638-3.496,65.704-16.349,90.992-37.645
	c24.233-20.41,43.229-53.549,51.237-89.391c6.11-27.354,5.953-23.529,6.354-154.507c0.315-103.167,0.166-120.255-1.063-121.273
	c-1.016-0.843-6.746-1.106-19.799-0.913l-18.369,0.273l-0.563,120.5c-0.609,130.1-0.448,126.145-6.062,149
	c-14.873,60.583-61.188,96.992-123.375,96.992c-62.979,0-108.79-36.629-123.635-98.854c-4.744-19.891-4.826-22.375-4.847-147.764
	c-0.018-99.208-0.24-118.311-1.399-119.273c-0.955-0.792-7.049-1.063-19.75-0.873l-18.369,0.273l-0.313,117
	c-0.332,124.344-0.068,133.769,4.341,155.03c7.29,35.156,21.771,62.895,44.908,86.035c17.998,17.998,36.762,29.489,61.069,37.396
	c11.501,3.74,29.479,7.532,39.494,8.329C470.481,462.787,489.749,462.62,499.459,461.641z M88.314,361.186l0.5-96l77-0.5l77-0.5
	l0.277-14.993c0.245-13.222,0.075-15.141-1.44-16.25c-1.346-0.983-18.23-1.257-77.535-1.257H88.301l0.257-69.25l0.258-69.25
	l84.403-0.256c60.339-0.183,84.788-0.574,85.75-1.373c1.815-1.506,1.946-30.871,0.146-32.671c-1.741-1.741-207.858-1.741-209.601,0
	c-1.766,1.765-1.744,395.855,0.021,397.621c0.894,0.896,6.182,1.148,19.75,0.95l18.527-0.271L88.314,361.186z M952.813,440.186v-17
	l-96.5-0.5l-96.5-0.5l-0.5-182l-0.5-182l-18.369-0.273c-12.701-0.189-18.795,0.08-19.75,0.873
	c-1.165,0.967-1.381,31.955-1.381,198.823c0,152.795,0.272,197.951,1.203,198.881c0.93,0.929,27.709,1.146,116.75,0.95
	l115.547-0.256V440.186z M1181.919,456.652c44.494-3.565,77.239-14.024,107.896-34.467c33.084-22.059,57.159-54.29,70.555-94.452
	c15.611-46.813,14.375-105.854-3.173-151.558c-23.006-59.915-71.601-99.81-138.787-113.941
	c-26.911-5.661-29.751-5.808-121.165-6.266c-73.104-0.366-84.733-0.227-85.775,1.03c-0.855,1.032-1.126,6.044-0.931,17.319
	l0.276,15.866l83.5,0.539c81.753,0.528,83.762,0.587,96,2.848c26.234,4.846,51.698,14.949,71.011,28.175
	c19.146,13.114,38.311,34.631,48.745,54.729c25.464,49.052,25.524,112.473,0.156,161.081
	c-22.912,43.904-64.724,72.297-121.912,82.788c-8.37,1.536-19.493,1.811-93.5,2.291l-84,0.549l-0.276,15.866
	c-0.188,10.853,0.088,16.306,0.873,17.25c0.96,1.157,13.979,1.384,79.381,1.384C1135.635,457.686,1174.527,457.244,1181.919,456.652
	z M1409.359,455.936c0.585-0.963,14.668-31.448,31.297-67.75l30.231-66h92.811h92.808l30.455,66.459
	c16.751,36.554,30.945,67.051,31.544,67.771c0.846,1.019,5.476,1.251,20.688,1.041c16.789-0.231,19.641-0.493,19.896-1.825
	c0.278-1.449-180.162-395.767-183.359-400.695c-1.355-2.093-2.171-2.249-11.687-2.235c-5.624,0.008-10.733,0.346-11.354,0.75
	c-0.874,0.57-174.021,376.259-182.678,396.372c-3.405,7.909-3.516,7.861,18.766,7.861
	C1406.297,457.686,1408.406,457.506,1409.359,455.936z M1487.606,285.436c2.312-5.705,74.943-164.387,75.498-164.939
	c0.396-0.396,17.334,35.597,37.639,79.985s37.525,81.942,38.271,83.455l1.354,2.75h-76.633
	C1502.823,286.686,1487.204,286.429,1487.606,285.436z M1043.677,411.117c2.674-3.049,8.45-8.059,12.836-11.133
	c4.389-3.072,8.203-6.183,8.481-6.907c0.279-0.728-0.379-2.574-1.461-4.106c-3.374-4.774-8.977-16.638-10.786-22.845
	c-1.059-3.624-2.162-12.961-2.833-23.94l-1.101-18l-9.854-0.286c-5.75-0.169-10.37,0.142-11.097,0.743
	c-0.85,0.704-1.438,6.201-1.854,17.288c-0.359,9.62-1.252,18.704-2.185,22.255c-1.727,6.563-7.284,18.966-10.571,23.581
	c-1.146,1.607-1.938,3.778-1.762,4.825c0.177,1.051,4.346,4.776,9.317,8.328c4.95,3.534,10.574,8.527,12.498,11.096
	c1.924,2.569,3.949,4.664,4.5,4.657C1038.358,416.666,1041.002,414.166,1043.677,411.117z M1007.229,357.729
	c7.506-3.828,12.231-12.569,13.573-25.098c0.891-8.3,0.042-9.158-8.628-8.746l-6.313,0.3l-0.683,4
	c-1.348,7.924-3.845,12.402-8.4,15.073c-6.659,3.902-10.185,4.624-13.698,2.807c-3.963-2.05-5.528-0.633-3.83,3.467
	c1.433,3.459,4.365,6.397,8.563,8.582C992.165,360.376,1002.438,360.173,1007.229,357.729z M1088.948,357.767
	c8.104-4.939,11.697-15.729,3.891-11.679c-2.035,1.057-3.568,1.149-6.354,0.385c-9.179-2.52-12.93-6.362-15.158-15.534l-1.643-6.753
	l-6.334-0.302c-3.482-0.166-6.786,0.151-7.342,0.706c-1.537,1.538-0.867,11.361,1.233,18.118c3.739,12.015,9.916,16.862,21.57,16.93
	C1083.999,359.668,1086.627,359.183,1088.948,357.767z M936.399,328.634c8.673-2.51,14.734-7.808,19.114-16.706
	c3.199-6.497,3.271-6.932,3.083-18.696c-0.237-15.048,1.161-20.647,6.423-25.689c2.087-2,5.233-4.358,6.993-5.245
	c10.171-5.117,24.62,2.303,30.945,15.891l1.862,4l6.76,0.295c8.12,0.355,8.563-0.23,6.899-9.168
	c-3.956-21.277-26.301-42.955-50.629-49.117c-6.744-1.709-20.904-1.953-27.33-0.471c-11.197,2.582-22.633,11.496-27.752,21.633
	c-2.672,5.289-2.942,6.754-2.949,15.829c-0.01,10.955-0.437,9.707,9.743,28.5c7.739,14.289,8.299,24.529,1.825,33.541
	c-3.034,4.227-3.727,6.477-2.397,7.803C919.993,332.031,928.885,330.808,936.399,328.634z M1156.732,331.078
	c2.349-0.9,1.958-2.634-1.882-8.338c-7.517-11.167-6.181-18.908,7.519-43.555c4.39-7.898,4.444-8.121,4.444-17.521
	c0-8.715-0.273-10.078-3.24-16.104c-4.043-8.214-11.103-14.97-19.978-19.122c-5.823-2.727-7.987-3.17-17.223-3.535
	c-20.449-0.806-37.579,6.332-52.712,21.963c-9.826,10.15-16.788,24.458-16.15,33.19l0.303,4.129l6.711,0.295l6.711,0.295
	l2.537-5.008c3.591-7.086,7.826-11.547,13.781-14.515c8.246-4.11,15.346-3.171,22.661,2.998c5.894,4.97,7.251,9.663,7.46,25.781
	c0.176,13.451,0.328,14.438,3.094,19.942c5.316,10.585,14.188,16.771,26.586,18.541c3.553,0.508,6.761,0.979,7.127,1.046
	C1154.851,331.63,1155.862,331.412,1156.732,331.078z M1077.255,316.52c1.109-1.19,3.247-3.939,4.75-6.108
	c4.71-6.796,5.153-6.728-43.132-6.711c-23.132,0.008-43.071,0.285-44.309,0.616c-3.067,0.821-2.827,2.827,0.923,7.727
	c5.414,7.068,2.663,6.644,42.979,6.644C1074.89,318.686,1075.256,318.665,1077.255,316.52z M1083.945,300.205
	c0.756-1.97-6.255-11.426-9.339-12.599c-3.193-1.215-69.438-1.196-72.638,0.02c-2.963,1.127-9.656,9.585-9.656,12.203
	c0,1.781,1.845,1.855,45.531,1.855C1077.129,301.686,1083.455,301.482,1083.945,300.205z M1051.553,276.217
	c0.925-7.416,3.789-16.221,9.283-28.531c6.835-15.318,15.302-38.553,17.063-46.83c2.383-11.189,2.399-34.766,0.032-42.67
	c-3.33-11.121-7.178-16.76-20.66-30.277c-11.952-11.982-12.89-13.205-14.394-18.771c-2.85-10.544-3.036-10.952-5.021-10.952
	c-1.517,0-2.238,1.336-3.521,6.5c-0.888,3.575-2.215,7.625-2.95,9c-0.732,1.375-7.054,8.35-14.043,15.5
	c-13.582,13.895-17.616,20.232-19.925,31.299c-1.633,7.828-1.368,29.596,0.479,39.326c1.658,8.744,9.203,29.719,17.398,48.375
	c5.772,13.143,9.019,23.359,9.019,28.405c0,5.798,0.963,6.188,14.478,5.874l12.019-0.279L1051.553,276.217z"/>
</svg>
